<svg width="110" height="145" viewBox="0 0 110 145" fill="none" xmlns="http://www.w3.org/2000/svg">
<path d="M1 17.3517C1 8.32092 8.34852 1 17.4134 1H92.5866C101.651 1 109 8.32092 109 17.3517V209.648C109 218.679 101.651 226 92.5866 226H17.4134C8.34852 226 1 218.679 1 209.648V17.3517Z" stroke="#13454C"/>
<path d="M17.0851 4.59735C10.1958 4.59735 4.61094 10.1613 4.61094 17.0247V209.648C4.61094 216.512 10.1958 222.076 17.0851 222.076H92.9149C99.8042 222.076 105.389 216.512 105.389 209.648V17.0247C105.389 10.1613 99.8042 4.59735 92.9149 4.59735H75.845C75.1198 4.59735 74.5319 5.18302 74.5319 5.90549V6.52586C74.5319 9.97618 71.7243 12.7732 68.261 12.7732H41.4108C37.9474 12.7732 35.1398 9.97618 35.1398 6.52586V5.90549C35.1398 5.18302 34.5519 4.59735 33.8267 4.59735H17.0851Z" stroke="#13454C"/>
<g opacity="0.2">
<path d="M37.0595 20.0731C37.0595 19.4005 37.6072 18.8553 38.2827 18.8553H71.7173C72.3928 18.8553 72.9405 19.4005 72.9405 20.0731V22.9146C72.9405 23.5872 72.3928 24.1324 71.7173 24.1324H38.2827C37.6072 24.1324 37.0595 23.5872 37.0595 22.9146V20.0731Z" fill="#03CA9B"/>
<path d="M84.3571 18.8553C84.3571 18.1827 84.9048 17.6375 85.5804 17.6375H90.0655C90.741 17.6375 91.2887 18.1827 91.2887 18.8553V23.3205C91.2887 23.9931 90.741 24.5383 90.0655 24.5383H85.5804C84.9048 24.5383 84.3571 23.9931 84.3571 23.3205V18.8553Z" fill="#03CA9B"/>
<path d="M9.33334 18.8553C9.33334 18.1827 9.881 17.6375 10.5566 17.6375H11.7798C12.4553 17.6375 13.003 18.1827 13.003 18.8553V23.3205C13.003 23.9931 12.4553 24.5383 11.7798 24.5383H10.5566C9.881 24.5383 9.33334 23.9931 9.33334 23.3205V18.8553Z" fill="#03CA9B"/>
<path d="M93.7351 18.8553C93.7351 18.1827 94.2828 17.6375 94.9583 17.6375H99.4435C100.119 17.6375 100.667 18.1827 100.667 18.8553V23.3205C100.667 23.9931 100.119 24.5383 99.4435 24.5383H94.9583C94.2828 24.5383 93.7351 23.9931 93.7351 23.3205V18.8553Z" fill="#03CA9B"/>
</g>
<g opacity="0.05">
<path d="M15.4494 9.51858C15.4494 8.84601 15.9971 8.30078 16.6726 8.30078H24.0119C24.6875 8.30078 25.2351 8.84601 25.2351 9.51858V10.7364C25.2351 11.409 24.6875 11.9542 24.0119 11.9542H16.6726C15.9971 11.9542 15.4494 11.409 15.4494 10.7364V9.51858Z" fill="#03CA9B"/>
<path d="M92.5119 9.51858C92.5119 8.84601 93.0596 8.30078 93.7351 8.30078H96.1816C96.8571 8.30078 97.4048 8.84601 97.4048 9.51858V10.7364C97.4048 11.409 96.8571 11.9542 96.1816 11.9542H93.7351C93.0596 11.9542 92.5119 11.409 92.5119 10.7364V9.51858Z" fill="#03CA9B"/>
<path d="M85.5804 9.51858C85.5804 8.84601 86.128 8.30078 86.8036 8.30078H88.4345C89.1101 8.30078 89.6577 8.84601 89.6577 9.51858V10.7364C89.6577 11.409 89.1101 11.9542 88.4345 11.9542H86.8036C86.128 11.9542 85.5804 11.409 85.5804 10.7364V9.51858Z" fill="#03CA9B"/>
</g>
<rect opacity="0.4" x="9.83334" y="28.7124" width="90.3333" height="17.9159" rx="2.5" stroke="#03CA9B"/>
<path d="M23.5 37.5044C23.5 39.7921 21.6366 41.6504 19.3334 41.6504C17.0301 41.6504 15.1667 39.7921 15.1667 37.5044C15.1667 35.2167 17.0301 33.3584 19.3334 33.3584C21.6366 33.3584 23.5 35.2167 23.5 37.5044Z" stroke="#03CA9B"/>
<g clip-path="url(#clip0_2157_3896)">
<path fill-rule="evenodd" clip-rule="evenodd" d="M20.9128 37.6693C21.2298 37.5898 21.4284 37.3906 21.5123 37.073C21.621 36.6622 21.51 36.3406 21.1677 36.0904C20.9878 35.9588 20.7859 35.8702 20.5774 35.7962C20.5376 35.782 20.5285 35.7648 20.5382 35.7277C20.5742 35.5889 20.6094 35.4499 20.6444 35.3108C20.6648 35.2296 20.6848 35.1483 20.7054 35.0651C20.7147 35.0273 20.7242 34.9891 20.7338 34.9503L20.2316 34.8258L20.0293 35.6307L19.622 35.5343L19.8242 34.7245L19.3249 34.6006C19.3223 34.6081 19.3199 34.6149 19.3177 34.6212C19.3133 34.6333 19.3096 34.6436 19.307 34.6542C19.2942 34.7052 19.2813 34.7562 19.2685 34.8073C19.221 34.9957 19.1735 35.1841 19.1284 35.373C19.1176 35.4181 19.1026 35.4259 19.0589 35.4144C18.9218 35.3784 18.7841 35.3448 18.6464 35.3111C18.6092 35.302 18.572 35.2929 18.5348 35.2838C18.4321 35.2585 18.3293 35.2335 18.2251 35.2081C18.1817 35.1976 18.138 35.1869 18.094 35.1762L17.9603 35.7094C17.9746 35.7128 17.9885 35.7161 18.0022 35.7193C18.0312 35.726 18.0591 35.7325 18.0866 35.7401C18.118 35.7488 18.1496 35.7569 18.1813 35.765C18.2607 35.7853 18.3401 35.8055 18.4152 35.836C18.535 35.8845 18.5841 36.006 18.5531 36.1304C18.5268 36.2358 18.5006 36.3412 18.4744 36.4466C18.4186 36.6707 18.3628 36.8947 18.3068 37.1187C18.274 37.2497 18.2409 37.3807 18.2079 37.5117C18.1384 37.7875 18.0688 38.0633 18.0012 38.3396C17.979 38.4303 17.8786 38.5161 17.7714 38.4851C17.6857 38.4603 17.5983 38.4411 17.51 38.4217C17.4714 38.4133 17.4326 38.4048 17.3937 38.3957L17.1459 38.9645L18.1643 39.221L17.9555 40.0586L18.4549 40.1822C18.4575 40.1726 18.4599 40.1639 18.4621 40.1559C18.4664 40.1404 18.47 40.1271 18.4734 40.1138C18.4854 40.0662 18.4974 40.0185 18.5094 39.9709C18.5573 39.7816 18.6051 39.5922 18.6518 39.4025C18.6591 39.3732 18.6674 39.3544 18.7018 39.3635C18.7954 39.3884 18.8891 39.4132 18.9864 39.4389C19.0139 39.4462 19.0417 39.4535 19.0699 39.461L18.865 40.2845L19.3634 40.4081C19.3659 40.4009 19.3682 40.3944 19.3704 40.3883C19.3748 40.3762 19.3786 40.3657 19.3812 40.355C19.3932 40.3072 19.4052 40.2596 19.4171 40.2119C19.4657 40.0183 19.5143 39.8247 19.561 39.6306C19.5717 39.5859 19.5882 39.5709 19.6345 39.5824C19.6678 39.5906 19.7019 39.5952 19.736 39.5999C19.7524 39.6021 19.7688 39.6043 19.7851 39.607C20.045 39.6488 20.3057 39.6641 20.5662 39.616C20.8015 39.5726 21.0028 39.4677 21.1536 39.2772C21.3158 39.0722 21.3992 38.836 21.4349 38.5805C21.4715 38.3183 21.405 38.087 21.2123 37.9027C21.15 37.8431 21.0796 37.7919 21.0089 37.7405C20.9767 37.7171 20.9444 37.6936 20.9128 37.6693ZM19.4873 37.2012C19.7112 37.254 19.9364 37.2947 20.168 37.2576C20.5038 37.2038 20.603 36.9094 20.5469 36.695C20.5073 36.5437 20.3951 36.4495 20.2642 36.3753C20.0602 36.2596 19.8351 36.2075 19.6101 36.1555C19.5815 36.1488 19.5528 36.1422 19.5243 36.1355C19.4858 36.1264 19.479 36.1507 19.4719 36.1803C19.4516 36.2638 19.4306 36.3472 19.4095 36.4305C19.3981 36.4758 19.3866 36.5212 19.3753 36.5665C19.343 36.6958 19.3109 36.8251 19.2782 36.9565L19.2335 37.1365C19.2625 37.1439 19.2906 37.1512 19.3181 37.1584C19.3762 37.1736 19.4316 37.1881 19.4873 37.2012ZM19.0157 38.0032C18.956 38.2405 18.8962 38.4779 18.836 38.7151C18.8269 38.751 18.8424 38.7574 18.8729 38.764C18.9434 38.7792 19.0135 38.7957 19.0837 38.8122C19.2156 38.8432 19.3474 38.8741 19.4806 38.8969C19.6632 38.9281 19.8489 38.9327 20.0327 38.8901C20.3945 38.8063 20.4991 38.4048 20.3197 38.1622C20.2355 38.0484 20.1214 37.9712 19.9961 37.9095C19.7474 37.7869 19.4801 37.7259 19.2135 37.6651C19.18 37.6574 19.1465 37.6498 19.113 37.642C19.1115 37.6439 19.11 37.6455 19.1087 37.6469C19.1062 37.6496 19.1043 37.6516 19.1037 37.654C19.0744 37.7702 19.0451 37.8865 19.0158 38.0027L19.0157 38.0032Z" fill="#03CA9B"/>
</g>
<path d="M37.3868 37.4283C37.3868 39.716 35.5234 41.5743 33.2201 41.5743C30.9168 41.5743 29.0534 39.716 29.0534 37.4283C29.0534 35.1406 30.9168 33.2822 33.2201 33.2822C35.5234 33.2822 37.3868 35.1406 37.3868 37.4283Z" stroke="#03CA9B"/>
<g clip-path="url(#clip1_2157_3896)">
<path d="M32.9852 40.3319H33.523L33.5276 39.8079C34.5142 39.733 35.0862 39.2113 35.0884 38.4241C35.0862 37.6505 34.5005 37.2399 33.6894 37.0584L33.5549 37.0266L33.564 35.8924C33.8671 35.9627 34.0517 36.1555 34.079 36.4413H35.0246C35.0132 35.6905 34.4504 35.1528 33.5731 35.0575L33.5777 34.5244H33.0399L33.0354 35.053C32.1444 35.1392 31.5155 35.6746 31.5201 36.4481C31.5178 37.1333 32.0032 37.5257 32.7916 37.714L33.0103 37.7684L32.9989 38.9685C32.6275 38.8982 32.3769 38.6713 32.3518 38.2925H31.397C31.4198 39.209 32.0237 39.7217 32.9898 39.8056L32.9852 40.3319ZM33.5367 38.9685L33.5458 37.9091C33.899 38.0203 34.0904 38.1632 34.0927 38.4218C34.0904 38.6963 33.8808 38.9005 33.5367 38.9685ZM33.0172 36.8882C32.7323 36.7907 32.5272 36.6432 32.5318 36.3824C32.5318 36.1396 32.705 35.9513 33.0263 35.8855L33.0172 36.8882Z" fill="#03CA9B"/>
</g>
<path opacity="0.18" fill-rule="evenodd" clip-rule="evenodd" d="M66.3393 33.7869C66.3393 32.6823 67.2347 31.7869 68.3393 31.7869H95.1647C96.2693 31.7869 97.1647 32.6823 97.1647 33.7869V34.171C97.1647 35.2756 96.2693 36.171 95.1647 36.171H68.3393C67.2347 36.171 66.3393 35.2756 66.3393 34.171V33.7869ZM75.1467 39.0937C75.1467 38.6901 75.4739 38.363 75.8774 38.363H96.4342C96.8377 38.363 97.1649 38.6901 97.1649 39.0937C97.1649 39.4972 96.8377 39.8244 96.4342 39.8244H75.8774C75.4739 39.8244 75.1467 39.4972 75.1467 39.0937ZM84.6845 42.0165C84.2809 42.0165 83.9538 42.3437 83.9538 42.7472C83.9538 43.1508 84.2809 43.478 84.6845 43.478H96.434C96.8375 43.478 97.1647 43.1508 97.1647 42.7472C97.1647 42.3437 96.8375 42.0165 96.434 42.0165H84.6845Z" fill="#03CA9B"/>
<rect opacity="0.4" x="9.83334" y="50.947" width="90.3333" height="21.2345" rx="2.5" stroke="#03CA9B"/>
<path opacity="0.18" fill-rule="evenodd" clip-rule="evenodd" d="M13.9051 54.0984C13.1554 54.0984 12.5476 54.7062 12.5476 55.4559C12.5476 56.2056 13.1554 56.8134 13.9051 56.8134H15.0482C15.7979 56.8134 16.4057 56.2056 16.4057 55.4559C16.4057 54.7062 15.7979 54.0984 15.0482 54.0984H13.9051ZM20.9433 54.7771C20.5684 54.7771 20.2645 55.081 20.2645 55.4559C20.2645 55.8307 20.5684 56.1346 20.9433 56.1346H45.6283C46.0031 56.1346 46.307 55.8307 46.307 55.4559C46.307 55.081 46.0031 54.7771 45.6283 54.7771H20.9433ZM50.1649 55.4559C50.1649 55.081 50.4688 54.7771 50.8436 54.7771H62.9896C63.3645 54.7771 63.6684 55.081 63.6684 55.4559C63.6684 55.8307 63.3645 56.1346 62.9896 56.1346H50.8436C50.4688 56.1346 50.1649 55.8307 50.1649 55.4559ZM67.2408 54.7771C66.866 54.7771 66.5621 55.081 66.5621 55.4559C66.5621 55.8307 66.866 56.1346 67.2408 56.1346H79.3869C79.7617 56.1346 80.0656 55.8307 80.0656 55.4559C80.0656 55.081 79.7617 54.7771 79.3869 54.7771H67.2408ZM83.9237 55.4559C83.9237 55.081 84.2276 54.7771 84.6025 54.7771H96.7485C97.1234 54.7771 97.4273 55.081 97.4273 55.4559C97.4273 55.8307 97.1234 56.1346 96.7485 56.1346H84.6025C84.2276 56.1346 83.9237 55.8307 83.9237 55.4559ZM13.9051 66.3159C13.1554 66.3159 12.5476 66.9237 12.5476 67.6734C12.5476 68.4231 13.1554 69.0309 13.9051 69.0309H15.0482C15.7979 69.0309 16.4057 68.4231 16.4057 67.6734C16.4057 66.9237 15.7979 66.3159 15.0482 66.3159H13.9051ZM20.9433 66.9945C20.5684 66.9945 20.2645 67.2983 20.2645 67.6732C20.2645 68.048 20.5684 68.3519 20.9433 68.3519H45.6283C46.0032 68.3519 46.307 68.048 46.307 67.6732C46.307 67.2983 46.0032 66.9945 45.6283 66.9945H20.9433ZM50.1648 67.6732C50.1648 67.2983 50.4686 66.9945 50.8435 66.9945H62.9896C63.3644 66.9945 63.6683 67.2983 63.6683 67.6732C63.6683 68.048 63.3644 68.3519 62.9896 68.3519H50.8435C50.4686 68.3519 50.1648 68.048 50.1648 67.6732ZM67.2407 66.9945C66.8659 66.9945 66.562 67.2983 66.562 67.6732C66.562 68.048 66.8659 68.3519 67.2407 68.3519H79.3869C79.7617 68.3519 80.0656 68.048 80.0656 67.6732C80.0656 67.2983 79.7617 66.9945 79.3869 66.9945H67.2407ZM83.9237 67.6732C83.9237 67.2983 84.2276 66.9945 84.6025 66.9945H96.7485C97.1234 66.9945 97.4272 67.2983 97.4272 67.6732C97.4272 68.048 97.1234 68.3519 96.7485 68.3519H84.6025C84.2276 68.3519 83.9237 68.048 83.9237 67.6732ZM12.5476 59.5284C12.5476 58.7786 13.1554 58.1709 13.9051 58.1709H15.0482C15.7979 58.1709 16.4057 58.7786 16.4057 59.5284C16.4057 60.2781 15.7979 60.8859 15.0482 60.8859H13.9051C13.1554 60.8859 12.5476 60.2781 12.5476 59.5284ZM20.2645 59.5284C20.2645 59.1535 20.5684 58.8497 20.9433 58.8497H41.7702C42.145 58.8497 42.4489 59.1535 42.4489 59.5284C42.4489 59.9032 42.145 60.2071 41.7702 60.2071H20.9433C20.5684 60.2071 20.2645 59.9032 20.2645 59.5284ZM53.737 58.8497C53.3622 58.8497 53.0583 59.1535 53.0583 59.5284C53.0583 59.9032 53.3622 60.2071 53.737 60.2071H62.9895C63.3643 60.2071 63.6682 59.9032 63.6682 59.5284C63.6682 59.1535 63.3643 58.8497 62.9895 58.8497H53.737ZM70.4201 59.5284C70.4201 59.1535 70.724 58.8497 71.0988 58.8497H79.3868C79.7617 58.8497 80.0655 59.1535 80.0655 59.5284C80.0655 59.9032 79.7617 60.2071 79.3868 60.2071H71.0988C70.724 60.2071 70.4201 59.9032 70.4201 59.5284ZM90.3895 58.8497C90.0146 58.8497 89.7108 59.1535 89.7108 59.5284C89.7108 59.9032 90.0146 60.2071 90.3895 60.2071H96.7484C97.1232 60.2071 97.4271 59.9032 97.4271 59.5284C97.4271 59.1535 97.1232 58.8497 96.7484 58.8497H90.3895ZM13.9051 62.2433C13.1554 62.2433 12.5476 62.8511 12.5476 63.6008C12.5476 64.3505 13.1554 64.9583 13.9051 64.9583H15.0482C15.7979 64.9583 16.4057 64.3505 16.4057 63.6008C16.4057 62.8511 15.7979 62.2433 15.0482 62.2433H13.9051ZM20.9433 62.9221C20.5684 62.9221 20.2645 63.226 20.2645 63.6008C20.2645 63.9757 20.5684 64.2796 20.9433 64.2796H38.8765C39.2514 64.2796 39.5553 63.9757 39.5553 63.6008C39.5553 63.226 39.2514 62.9221 38.8765 62.9221H20.9433ZM52.0938 63.6008C52.0938 63.226 52.3977 62.9221 52.7726 62.9221H62.9896C63.3644 62.9221 63.6683 63.226 63.6683 63.6008C63.6683 63.9757 63.3644 64.2796 62.9896 64.2796H52.7726C52.3977 64.2796 52.0938 63.9757 52.0938 63.6008ZM73.028 62.9221C72.6531 62.9221 72.3492 63.226 72.3492 63.6008C72.3492 63.9757 72.6531 64.2796 73.028 64.2796H79.3868C79.7617 64.2796 80.0655 63.9757 80.0655 63.6008C80.0655 63.226 79.7617 62.9221 79.3868 62.9221H73.028ZM86.817 63.6008C86.817 63.226 87.1209 62.9221 87.4957 62.9221H96.7482C97.1231 62.9221 97.4269 63.226 97.4269 63.6008C97.4269 63.9757 97.1231 64.2796 96.7482 64.2796H87.4957C87.1209 64.2796 86.817 63.9757 86.817 63.6008Z" fill="#03CA9B"/>
<g clip-path="url(#clip2_2157_3896)">
<rect opacity="0.4" x="9.83334" y="76.74" width="90.3333" height="100.889" rx="2.5" stroke="#03CA9B"/>
<path opacity="0.8" d="M18.8882 165.147L11.0195 169.399H9.33334V178.129H100.667V92.3335C99.1157 91.0001 96.7201 91.5183 95.8588 93.3735L90.2634 105.425C88.9924 108.163 85.2629 108.56 83.4436 106.152L81.838 104.026L79.8708 97.79L75.9279 99.2428C74.3274 97.3757 71.3011 97.9745 70.5323 100.31L55.1405 147.077H43.6185L31.2533 160.895H27.319L24.5087 165.147H18.8882Z" fill="url(#paint0_linear_2157_3896)"/>
<g filter="url(#filter0_d_2157_3896)">
<path d="M103.768 96.2227L101.959 94.1929C100.045 92.0443 96.5564 92.5593 95.3446 95.1694L90.5968 105.396C89.3258 108.133 85.5963 108.531 83.777 106.122L82.5868 104.547C82.3118 104.183 82.1012 103.774 81.9639 103.339L80.9976 100.276C80.5643 98.9022 79.0768 98.1633 77.7203 98.6478L77.6543 98.6714C76.7348 98.9999 75.7079 98.7472 75.0459 98.0294V98.0294C73.7819 96.6589 71.5095 97.1599 70.9389 98.9349L56.3662 144.271C55.8344 145.925 54.2956 147.047 52.5581 147.047H45.7402C44.6022 147.047 43.5181 147.532 42.7593 148.38L32.7777 159.535C32.0198 160.382 30.9371 160.866 29.8006 160.866V160.866C28.4592 160.866 27.2074 161.539 26.4678 162.658L26.0281 163.323C25.2876 164.444 24.0341 165.118 22.6911 165.118H20.2331C19.5692 165.118 18.9157 165.283 18.3316 165.598L12.2428 168.888C11.6587 169.204 11.0052 169.369 10.3413 169.369H9.66669" stroke="#03CA9B" stroke-width="2"/>
</g>
</g>
<defs>
<filter id="filter0_d_2157_3896" x="-0.333313" y="81.853" width="114.848" height="98.5164" filterUnits="userSpaceOnUse" color-interpolation-filters="sRGB">
<feFlood flood-opacity="0" result="BackgroundImageFix"/>
<feColorMatrix in="SourceAlpha" type="matrix" values="0 0 0 0 0 0 0 0 0 0 0 0 0 0 0 0 0 0 127 0" result="hardAlpha"/>
<feOffset/>
<feGaussianBlur stdDeviation="5"/>
<feColorMatrix type="matrix" values="0 0 0 0 1 0 0 0 0 1 0 0 0 0 1 0 0 0 0.7 0"/>
<feBlend mode="normal" in2="BackgroundImageFix" result="effect1_dropShadow_2157_3896"/>
<feBlend mode="normal" in="SourceGraphic" in2="effect1_dropShadow_2157_3896" result="shape"/>
</filter>
<linearGradient id="paint0_linear_2157_3896" x1="55" y1="89.676" x2="55" y2="178.129" gradientUnits="userSpaceOnUse">
<stop stop-color="#03CA9B"/>
<stop offset="1" stop-color="#03CA9B" stop-opacity="0"/>
</linearGradient>
<clipPath id="clip0_2157_3896">
<rect width="5.83333" height="5.80749" fill="white" transform="translate(16.4167 34.6006)"/>
</clipPath>
<clipPath id="clip1_2157_3896">
<rect width="5.83333" height="5.8075" fill="white" transform="translate(30.3033 34.5244)"/>
</clipPath>
<clipPath id="clip2_2157_3896">
<rect width="91.3333" height="101.889" fill="white" transform="translate(9.33334 76.24)"/>
</clipPath>
</defs>
</svg>
